<?xml version="1.0" encoding="UTF-8"?>
<svg xmlns="http://www.w3.org/2000/svg" version="1.1" viewBox="0 0 2500 2500">
  <!-- Generator: Adobe Illustrator 28.7.7, SVG Export Plug-In . SVG Version: 1.2.0 Build 194)  -->
  <g>
    <g id="Background">
      <rect width="2500" height="2500" style="fill: #fff;"/>
    </g>
    <g id="Illustration">
      <g id="Geology">
        <g>
          <g>
            <g>
              <path d="M697.094,1338.845c9.74-12.939-54.466-36.096-53.602-81.545.79-41.526,54.961-52.194,53.367-90.235-1.706-40.707-64.584-48.673-64.613-90.167-.023-31.977,37.312-36.795,40.342-70.999,3.641-41.097-49.156-46.562-66.312-100.832-16.024-50.685,20.823-75.04-6.062-115.171-3.501-5.226-25.314-36.441-56.25-36.899-50.325-.744-115.337,80.047-105.767,149.949,8.058,58.859,62.966,65.961,66.179,128.49,2.723,52.999-36.004,61.867-23.405,102.976,14.911,48.649,74.127,52.479,86.31,107.309,6.381,28.72-7.854,36.721,3.824,57.036,24.664,42.904,115.253,54.351,125.99,40.088Z" style="fill: #fff;"/>
              <path d="M673.695,1346.846c-2.779,0-5.264-.107-7.13-.221-29.374-1.817-79.544-15.772-97.366-46.775-6.669-11.601-5.367-19.511-3.859-28.673,1.243-7.554,2.653-16.115-.205-28.98-6.221-27.999-25.449-42.63-44.044-56.779-17.174-13.066-34.931-26.579-42.222-50.364-6.726-21.944.788-35.453,8.743-49.755,7.436-13.369,15.865-28.52,14.569-53.75-1.635-31.797-16.684-48.603-32.616-66.393-14.55-16.246-29.594-33.048-33.546-61.913-6.053-44.215,16.776-88.183,40.159-114.591,21.339-24.099,45.746-37.858,67.09-37.858.243,0,.485,0,.727.004,31.406.463,53.861,31.629,58.043,37.873,14.873,22.202,10.869,40.016,6.631,58.875-3.732,16.611-7.592,33.786-.298,56.857,8.12,25.686,24.459,40.244,38.876,53.089,15.832,14.107,29.505,26.289,27.529,48.598-1.577,17.812-11.856,27.842-21.795,37.545-9.539,9.309-18.548,18.104-18.537,33.26.014,19.934,15.276,31.679,31.435,44.112,15.875,12.217,32.29,24.85,33.175,45.966.834,19.878-12.892,32.756-26.167,45.211-13.184,12.369-26.817,25.161-27.197,45.157-.496,26.051,21.522,44.721,37.599,58.356,12.041,10.211,20.741,17.587,15.561,24.47-4.188,5.563-16.199,6.679-25.154,6.679ZM543.294,755.189c-19.812,0-43.614,13.551-63.826,36.377-22.736,25.676-44.947,68.339-39.096,111.08,3.77,27.534,17.709,43.099,32.466,59.579,15.741,17.576,32.018,35.751,33.731,69.097,1.361,26.491-7.392,42.228-15.116,56.114-7.813,14.045-14.561,26.175-8.382,46.331,6.876,22.434,23.296,34.927,40.681,48.154,19.224,14.628,39.103,29.754,45.673,59.324,3.042,13.693,1.56,22.7.252,30.647-1.429,8.674-2.556,15.527,3.332,25.77,16.957,29.497,65.402,42.818,93.828,44.575,17.6,1.09,26.354-1.858,28.502-4.714l1.755,1.322-1.755-1.322c2.686-3.57-5.459-10.477-14.892-18.475-16.749-14.203-39.687-33.655-39.152-61.789.416-21.852,14.736-35.288,28.585-48.281,13.13-12.318,25.532-23.955,24.783-41.821-.799-19.067-15.696-30.531-31.465-42.666-16.29-12.536-33.134-25.497-33.15-47.592-.012-17.01,10.092-26.873,19.862-36.407,9.367-9.144,19.053-18.597,20.488-34.788,1.782-20.11-10.512-31.065-26.076-44.932-14.84-13.221-31.658-28.207-40.143-55.044-7.651-24.202-3.479-42.767.202-59.146,4.201-18.692,7.828-34.833-5.995-55.466-3.968-5.924-25.243-35.493-54.457-35.925-.211-.004-.425-.004-.636-.004Z"/>
            </g>
            <path d="M676.643,1332.499c-.216,0-.434-.032-.651-.099-39.184-12.141-63.934-29.304-73.562-51.012-7.373-16.621-3.219-29.932,1.178-44.022,4.315-13.824,8.776-28.119,2.427-47.107-6.727-20.119-18.859-29.196-30.592-37.976-11.646-8.713-22.646-16.943-27.575-34.678-6.972-25.086,5.977-42.788,18.501-59.907,12.41-16.963,24.132-32.985,19.445-56.369-3.784-18.881-15.627-29.467-29.341-41.722-14.451-12.914-30.83-27.553-38.519-54.893-5.711-20.314-5.12-42.039,1.758-64.572.354-1.161,1.58-1.828,2.743-1.459,1.161.354,1.814,1.581,1.46,2.742-6.63,21.715-7.211,42.608-1.73,62.1,7.341,26.107,22.528,39.679,37.216,52.806,13.705,12.249,26.65,23.818,30.721,44.136,5.067,25.281-7.781,42.844-20.207,59.828-12.453,17.023-24.216,33.101-17.814,56.136,4.528,16.289,14.946,24.084,25.975,32.337,11.701,8.756,24.963,18.679,32.126,40.098,6.8,20.335,1.913,35.995-2.399,49.811-4.144,13.279-8.059,25.821-1.356,40.932,9.092,20.496,32.927,36.847,70.845,48.596,1.16.358,1.808,1.59,1.448,2.748-.292.942-1.161,1.547-2.097,1.547Z"/>
          </g>
          <g>
            <g>
              <path d="M843.093,1851.594c3.47-9.565-45.364-25.973-88.376-95.978-26.044-42.39-36.916-83.211-46.831-121.527-24.532-94.799-7.73-112.531-31.801-157.14-28.889-53.538-62.31-34.667-102.711-90.217-49.83-68.513-16.164-120.832-66.945-182.761-27.747-33.839-76.041-64.858-117.07-51.522-24.831,8.071-50.188,33.424-49.873,62.111.304,27.685,24.292,37.863,43.988,72.331,35.167,61.543-3.012,96.107,20.19,157.995,31.489,83.991,120.722,70.786,162.559,171.043,16.85,40.38,3.775,45.878,18.811,84.398,50.742,129.993,251.199,170.177,258.059,151.267Z" style="fill: #fff;"/>
              <path d="M827.412,1858.211c-51.41,0-201.637-47.47-244.425-157.085-7.404-18.971-8.115-30.22-8.803-41.098-.74-11.708-1.439-22.766-9.988-43.254-21.39-51.257-55.068-72.324-87.637-92.695-30.601-19.138-59.504-37.218-74.952-78.423-10.792-28.787-8.526-51.75-6.334-73.959,2.584-26.193,5.027-50.933-13.707-83.716-7.652-13.39-15.973-23.082-23.315-31.631-11.604-13.51-20.769-24.182-20.962-41.767-.326-29.638,25.873-55.93,51.391-64.224,41.563-13.508,91.059,17.6,119.448,52.22,26.072,31.797,30.141,60.558,34.45,91.009,4.064,28.727,8.267,58.431,32.573,91.852,19.342,26.594,36.709,35.68,53.504,44.47,17.589,9.204,34.202,17.898,49.363,45.996,12.874,23.858,14.228,39.845,16.277,64.044,1.841,21.749,4.132,48.817,15.719,93.588,9.454,36.54,20.171,77.953,46.575,120.928,27.075,44.067,56.147,66.479,73.516,79.869,11.231,8.657,16.868,13.002,15.052,18.007l-2.065-.749,2.065.749c-1.387,3.825-6.873,5.744-16.771,5.862-.321.004-.646.006-.974.006ZM409.735,1151.502c-6.695,0-13.3.957-19.697,3.036-24.007,7.803-48.659,32.38-48.355,59.998.175,15.982,8.449,25.618,19.901,38.952,7.471,8.698,15.937,18.559,23.797,32.314,19.429,34,16.804,60.603,14.264,86.328-2.142,21.708-4.359,44.155,6.076,71.987,14.925,39.81,43.215,57.504,73.167,76.239,33.153,20.737,67.434,42.179,89.362,94.729,8.833,21.166,9.588,33.114,10.319,44.668.697,11.028,1.355,21.445,8.511,39.778,42.023,107.656,189.727,154.283,240.293,154.287.326,0,.641-.002.96-.004,9.211-.112,12.313-1.918,12.694-2.967.721-1.989-6.237-7.353-13.604-13.03-17.609-13.575-47.082-36.294-74.579-81.049-26.749-43.535-37.553-85.289-47.086-122.126-11.679-45.133-13.988-72.407-15.844-94.32-2.002-23.65-3.324-39.276-15.764-62.33-14.523-26.913-29.821-34.918-47.534-44.189-16.44-8.601-35.074-18.353-55.02-45.779-24.951-34.305-29.232-64.561-33.372-93.82-4.219-29.825-8.204-57.996-33.497-88.84-23.034-28.091-60.229-53.861-94.994-53.861Z"/>
            </g>
            <path d="M808.128,1846.647c-.329,0-.665-.075-.981-.232-73.247-36.635-119.963-82.965-138.847-137.704-8.863-25.693-10.601-49.712-12.281-72.939-2.498-34.56-4.86-67.202-30.485-101.048-18.033-23.818-36.403-33.698-54.169-43.254-20.055-10.788-38.998-20.977-52.806-50.208-9.587-20.297-10.305-36.287-11.136-54.803-.813-18.138-1.736-38.697-10.781-69.187-8.962-30.207-22.69-59.163-40.801-86.061-.678-1.006-.411-2.373.595-3.049,1.008-.684,2.372-.412,3.05.594,18.361,27.27,32.279,56.629,41.368,87.267,9.199,31.005,10.134,51.849,10.959,70.238.843,18.786,1.509,33.625,10.72,53.125,13.19,27.922,30.671,37.326,50.913,48.212,17.334,9.325,36.98,19.891,55.592,44.472,26.41,34.884,28.816,68.157,31.364,103.382,1.659,22.946,3.375,46.674,12.051,71.824,18.497,53.615,64.475,99.104,136.658,135.207,1.086.543,1.525,1.862.983,2.948-.385.77-1.161,1.214-1.967,1.214Z"/>
          </g>
        </g>
        <g>
          <path d="M1556.353,611.537l23.206-16.572-12.079-28.707c4.687-4.799,8.921-9.917,12.655-15.315l30.454,6.338,11.811-25.954-24.82-18.827c1.628-6.422,2.719-12.968,3.264-19.572l29.587-9.752-2.748-28.383-30.863-3.889c-1.781-6.318-4.124-12.533-7-18.593l20.742-23.233-16.572-23.206-28.707,12.078c-4.799-4.686-9.917-8.919-15.315-12.655l6.338-30.454-25.954-11.81-18.827,24.82c-6.423-1.628-12.969-2.72-19.572-3.265l-9.752-29.586-28.383,2.748-3.888,30.863c-6.319,1.78-12.533,4.125-18.593,7l-23.233-20.742-23.206,16.572,12.079,28.707c-4.686,4.799-8.921,9.916-12.655,15.315l-30.455-6.338-11.811,25.955,24.82,18.826c-1.628,6.422-2.72,12.969-3.265,19.572l-29.586,9.752,2.748,28.382,30.863,3.889c1.78,6.319,4.125,12.533,6.999,18.593l-20.742,23.234,16.572,23.206,28.707-12.079c4.799,4.687,9.916,8.921,15.315,12.655l-6.338,30.454,25.955,11.811,18.825-24.82c6.423,1.628,12.97,2.72,19.573,3.264l9.753,29.587,28.383-2.748,3.889-30.863c6.318-1.78,12.533-4.125,18.593-7l23.233,20.742ZM1422.489,525.863c-23.561-32.993-15.914-78.838,17.079-102.399,32.993-23.56,78.838-15.915,102.399,17.079,23.56,32.993,15.914,78.838-17.078,102.398-32.993,23.561-78.839,15.915-102.399-17.078Z"/>
          <path d="M1981.275,940.974l39.71-28.357-20.67-49.123c8.02-8.212,15.265-16.969,21.656-26.208l52.113,10.847,20.211-44.413-42.471-32.216c2.785-10.99,4.653-22.191,5.585-33.492l50.629-16.687-4.703-48.568-52.812-6.654c-3.048-10.811-7.058-21.447-11.978-31.817l35.494-39.756-28.358-39.71-49.124,20.668c-8.211-8.018-16.97-15.263-26.207-21.654l10.846-52.113-44.413-20.211-32.216,42.471c-10.99-2.785-22.192-4.655-33.491-5.587l-16.688-50.627-48.568,4.704-6.653,52.812c-10.813,3.046-21.447,7.058-31.818,11.978l-39.756-35.494-39.71,28.358,20.669,49.123c-8.019,8.212-15.265,16.969-21.655,26.207l-52.113-10.846-20.211,44.413,42.471,32.216c-2.786,10.989-4.655,22.192-5.587,33.491l-50.627,16.688,4.703,48.568,52.812,6.654c3.046,10.812,7.058,21.447,11.977,31.816l-35.492,39.757,28.357,39.71,49.123-20.67c8.213,8.02,16.969,15.265,26.208,21.655l-10.846,52.113,44.413,20.211,32.214-42.472c10.991,2.786,22.194,4.654,33.493,5.586l16.689,50.628,48.569-4.703,6.654-52.812c10.812-3.046,21.447-7.058,31.817-11.978l39.756,35.493ZM1752.209,794.371c-40.317-56.457-27.232-134.908,29.224-175.224,56.457-40.317,134.907-27.232,175.224,29.224,40.316,56.457,27.233,134.907-29.224,175.224-56.457,40.317-134.907,27.233-175.224-29.224Z"/>
        </g>
        <g>
          <g>
            <rect x="575.232" y="468.971" width="46.679" height="90.944" rx="17.047" ry="17.047" transform="translate(-188.741 458.966) rotate(-36.647)" style="fill: #fff;"/>
            <path d="M610.529,560.253c-.941,0-1.887-.071-2.835-.208-5.086-.747-9.577-3.431-12.644-7.554l-33.933-45.612c-6.332-8.514-4.559-20.593,3.953-26.928l10.098-7.511c8.512-6.334,20.592-4.559,26.926,3.956l33.931,45.612c3.068,4.124,4.347,9.196,3.6,14.283-.747,5.085-3.43,9.575-7.554,12.644l-10.097,7.511c-3.356,2.495-7.339,3.808-11.446,3.808ZM586.635,473.035c-3.082,0-6.188.953-8.845,2.931l-10.097,7.511c-6.569,4.888-7.937,14.21-3.051,20.779l33.933,45.612c2.368,3.182,5.833,5.252,9.757,5.827,3.934.577,7.84-.41,11.022-2.779l10.097-7.511c3.183-2.367,5.252-5.832,5.829-9.756.576-3.924-.411-7.838-2.778-11.022l-33.931-45.612c-2.912-3.914-7.397-5.982-11.935-5.982Z"/>
          </g>
          <g>
            <path d="M1101.612,1354.197l-11.566,7.704c-18.187,12.114-41.67,6.976-52.451-11.477l-474.948-812.938,76.195-50.755,475.678,814.188c10.378,17.763,4.599,41.616-12.908,53.278Z" style="fill: #fff;"/>
            <path d="M1068.867,1370.672c-2.916,0-5.84-.331-8.734-1-10.317-2.386-18.994-8.827-24.434-18.138l-474.949-812.938c-.587-1.006-.29-2.294.679-2.937l76.195-50.755c.502-.335,1.122-.444,1.712-.313.59.137,1.097.511,1.402,1.032l475.678,814.187c10.938,18.722,4.843,43.94-13.587,56.215l-1.218-1.828,1.218,1.828-11.566,7.705c-6.872,4.579-14.6,6.943-22.396,6.943ZM565.587,538.167l473.904,811.149c4.824,8.256,12.505,13.965,21.631,16.076,9.441,2.173,19.279.292,27.705-5.319l11.567-7.704c16.528-11.011,22.013-33.593,12.228-50.34l-474.504-812.177-72.532,48.315Z"/>
          </g>
          <path d="M744.243,666.751c-22.152,27.016-46.967,45.938-76.305,51.113-1.933.341-3.774-.422-4.719-2.019l-103.333-174.705,82.925-55.855,102.398,173.123c1.479,2.5,1.073,5.855-.966,8.342Z"/>
          <path d="M343.621,733.171c83.027-115.339,277.435-298.975,585.862-391.372,3.042-.911,4.474,6.02,1.921,7.99-110.077,84.948-212.439,149.954-251.085,195.926l-80.037,69.275c-45.148,8.161-161.436,82.509-251.892,124.359-3.825,1.77-7.271-2.701-4.768-6.178Z"/>
          <path d="M806.494,920.107c-.76,0-1.498-.393-1.904-1.099l-99.405-172.03c-.607-1.049-.248-2.394.802-3.002,1.048-.607,2.394-.249,3.002.805l99.405,172.03c.607,1.049.248,2.394-.802,3.002-.346.2-.724.294-1.097.294Z"/>
          <path d="M840.779,979.442c-.76,0-1.498-.393-1.904-1.099l-20.962-36.277c-.607-1.049-.248-2.394.802-3.002,1.049-.607,2.395-.249,3.002.805l20.962,36.277c.607,1.049.248,2.394-.802,3.002-.347.2-.724.294-1.097.294Z" style="fill: #fff;"/>
          <path d="M1054.412,1349.155c-.76,0-1.498-.393-1.904-1.099l-97.934-169.486c-.607-1.049-.248-2.394.802-3.002,1.051-.607,2.394-.249,3.002.805l97.934,169.486c.607,1.049.248,2.394-.802,3.002-.347.2-.724.294-1.097.294Z" style="fill: #fff;"/>
          <path d="M734.967,432.916c-.792,0-1.557-.429-1.949-1.178-.562-1.077-.146-2.403.929-2.965,42.426-22.187,87.291-42.037,133.35-59.006,1.14-.416,2.402.165,2.821,1.302.419,1.139-.164,2.401-1.302,2.821-45.883,16.903-90.574,36.678-132.833,58.775-.325.172-.673.251-1.016.251Z" style="fill: #fff;"/>
          <path d="M598.742,516.875c-.687,0-1.364-.32-1.792-.923-.704-.989-.473-2.36.515-3.064,37.906-26.995,75.009-50.452,113.426-71.712,1.065-.586,2.4-.202,2.987.858.588,1.062.203,2.399-.858,2.987-38.272,21.178-75.236,44.55-113.006,71.446-.386.275-.831.408-1.272.408Z" style="fill: #fff;"/>
          <path d="M346.627,741.951c-1.745,0-3.405-.768-4.603-2.218-1.863-2.257-1.938-5.409-.186-7.844,29.11-40.439,94.957-120.817,208.885-204.776,112.485-82.892,239.706-145.95,378.129-187.418,2.039-.609,4.008.371,5.132,2.566,1.476,2.877,1.33,7.286-1.239,9.269-37.944,29.282-75.573,56.633-108.773,80.764-65.263,47.435-116.811,84.905-141.972,114.835-.012.013-.023.026-.034.039l65.135,110.123c1.94,3.28,1.474,7.642-1.159,10.852-24.634,30.044-50.025,47.017-77.622,51.883-2.845.513-5.593-.697-6.992-3.064l-59.868-101.215-5.795,1.897c-.095.032-.193.056-.293.075-26.08,4.714-76.089,32.548-129.033,62.016-39.07,21.745-79.47,44.23-117.028,61.607-.884.41-1.796.609-2.685.609ZM929.895,343.969c-285.25,85.51-488.952,257.766-584.491,390.486-.7.974-.455,1.92.009,2.48.245.296.939.935,2.054.421,37.408-17.308,77.736-39.755,116.736-61.461,55.48-30.878,103.411-57.556,130.239-62.473l7.329-2.399c.977-.328,2.049.079,2.575.97l60.766,102.734c.465.785,1.4,1.152,2.446.974,26.52-4.679,51.047-21.146,74.987-50.343,1.467-1.789,1.779-4.132.774-5.832l-66.059-111.683c-.541-.914-.35-2.083.453-2.778l1.036-.897c25.546-30.318,77.23-67.885,142.64-115.429,33.175-24.114,70.778-51.446,108.672-80.689.19-.146.484-.764.463-1.802-.021-1.146-.392-1.967-.63-2.278ZM930.113,343.904h0s-.001,0,0,0ZM929.483,341.8h.021-.021Z"/>
          <path d="M683.351,743.199c33.333-22.429,55.354-46.704,60.212-73.779-21.523,25.197-44.559,46.672-75.625,48.444l15.412,25.335Z"/>
        </g>
        <g>
          <g>
            <path d="M901.773,546.53c-.225,0-.455-.034-.682-.109-1.153-.375-1.783-1.616-1.406-2.77l5.284-16.188c.378-1.15,1.609-1.789,2.771-1.405,1.153.376,1.783,1.616,1.406,2.77l-5.284,16.188c-.303.927-1.163,1.515-2.089,1.515Z"/>
            <path d="M889.462,584.244c-.225,0-.455-.034-.681-.109-1.154-.375-1.784-1.616-1.408-2.77l5.284-16.19c.378-1.15,1.615-1.789,2.77-1.405,1.154.375,1.784,1.616,1.408,2.77l-5.284,16.19c-.302.927-1.163,1.515-2.089,1.515Z"/>
            <path d="M887.498,553.78c-.225,0-.455-.034-.682-.109l-16.189-5.284c-1.153-.375-1.783-1.615-1.406-2.77.378-1.152,1.613-1.787,2.77-1.405l16.19,5.285c1.153.375,1.783,1.616,1.406,2.77-.302.927-1.163,1.515-2.089,1.515Z"/>
            <path d="M925.211,566.091c-.225,0-.455-.034-.681-.109l-16.19-5.284c-1.153-.376-1.783-1.616-1.406-2.77.377-1.152,1.612-1.787,2.771-1.405l16.189,5.284c1.153.376,1.783,1.616,1.406,2.77-.303.927-1.163,1.515-2.089,1.515Z"/>
          </g>
          <path d="M1005.577,548.92c-2.075,0-4.153-.386-6.147-1.161-4.338-1.686-7.755-4.997-9.62-9.322-3.809-8.831.144-19.183,8.813-23.075,4.176-1.88,8.826-1.998,13.092-.339,4.338,1.686,7.755,4.999,9.622,9.324,3.809,8.831-.144,19.181-8.813,23.073-2.225,1-4.583,1.5-6.946,1.5ZM1005.568,518.258c-1.751,0-3.497.371-5.146,1.111-6.491,2.916-9.442,10.687-6.578,17.325,1.396,3.238,3.946,5.711,7.177,6.969,3.16,1.227,6.604,1.137,9.702-.251,6.491-2.916,9.443-10.687,6.579-17.323-1.398-3.24-3.948-5.713-7.18-6.971-1.477-.573-3.018-.86-4.554-.86Z"/>
        </g>
        <g>
          <g>
            <g>
              <g>
                <ellipse cx="1247.587" cy="1305.271" rx="714.927" ry="706.815" style="fill: #fff;"/>
                <path d="M1247.587,2014.283c-191.546,0-371.629-73.746-507.075-207.657-135.452-133.915-210.049-311.966-210.049-501.356s74.597-367.439,210.049-501.354c135.446-133.911,315.529-207.657,507.075-207.657s371.629,73.746,507.075,207.657c135.452,133.915,210.049,311.966,210.049,501.354s-74.597,367.441-210.049,501.356c-135.446,133.911-315.529,207.657-507.075,207.657ZM1247.587,600.653c-393.001,0-712.73,316.09-712.73,704.617s319.73,704.619,712.73,704.619,712.73-316.09,712.73-704.619-319.73-704.617-712.73-704.617Z"/>
              </g>
              <g>
                <path d="M1203.539,831.844c-1.045,0-2.103-.101-3.171-.305-10.352-1.961-21.008-13.244-28.503-30.183-5.68-12.835-5.231-36.776-4.796-59.929.352-18.761.684-36.48-2.478-44.61-5.777-14.847-11.827-14.716-25.086-14.422-1.923.041-3.97.086-6.152.086-12.85,0-21.161-7.149-24.375-13.27-1.824-3.474-2.038-6.673-.589-8.773,23.709-34.382,100.941-25.658,142.433-20.97,48.357,5.467,73.201,26.137,69.957,58.206-3.253,32.149-70.219,69.14-77.844,73.25-7.867,4.242-11.312,16.34-14.645,28.04-2.959,10.389-6.018,21.131-12.35,27.39-3.667,3.626-7.904,5.49-12.4,5.49ZM1144.191,677.931c10.864,0,18.452,1.764,24.495,17.295,3.476,8.936,3.136,27.077,2.775,46.285-.405,21.618-.866,46.12,4.422,58.069,6.808,15.383,16.503,25.976,25.303,27.643,4.247.811,8.168-.539,11.663-3.993,5.511-5.448,8.409-15.626,11.214-25.47,3.582-12.577,7.286-25.581,16.786-30.702,26.908-14.51,73.101-45.545,75.557-69.826,3.006-29.707-19.843-48.171-66.078-53.396-40.579-4.585-116.106-13.118-138.322,19.095-.299.435-.329,1.967.863,4.237,2.852,5.435,10.293,10.919,20.484,10.919,2.148,0,4.162-.045,6.057-.086,1.661-.036,3.255-.071,4.781-.071ZM1110.197,661.685h.021-.021Z"/>
                <path d="M1027.013,1941.309c-7.815,0-17.187-4.293-23.713-10.065-15.065-13.319-43.001-70.425-55.613-103.886-9.971-26.446-15.191-108.763-18.646-163.234-1.037-16.364-1.934-30.496-2.703-38.66-2.653-28.154-14.391-32.53-45.765-44.226-5.032-1.877-10.735-4.004-16.879-6.417-44.921-17.656-49.025-34.395-48.134-71.189.081-3.321-.229-7.657-.585-12.68-1.541-21.674-3.869-54.428,19.123-74.757,20.403-18.042,31.171-76.561,29.998-101.145-.41-8.576,4.552-16.475,12.948-20.621h.001c16.321-8.054,43.896-14.937,82.576-1.993,16.134,5.398,23.497,14.195,30.617,22.702,5.938,7.095,12.077,14.431,23.586,20.155,8.114,4.036,18.125,6.51,27.806,8.902,20.33,5.025,41.351,10.219,36.457,30.773-1.761,7.402-.324,14.929,4.275,22.369,11.158,18.053,39.081,33.447,76.609,42.23,31.729,7.428,55.212,28.003,57.105,50.038,1.22,14.195-7.079,26.156-22.769,32.816-39.495,16.763-38.85,28.934-34.311,48.999,1.715,7.587,4.867,15.512,7.916,23.178,5.693,14.317,10.611,26.682,4.483,33.183-8.713,9.247-37.224,17.919-49.666,20.67-11.793,2.607-25.91,16.124-29.04,39.636-3.299,24.8-44.419,88.666-68.496,115.635-21.511,24.092-12.485,44.732,5.497,85.851,1.476,3.375,3.009,6.883,4.589,10.537,8.684,20.082,9.186,33.093,1.491,38.673-2.417,1.753-5.448,2.523-8.757,2.523ZM878.989,1298.37c-6.803,3.36-10.828,9.67-10.503,16.471,1.24,25.982-9.769,85.45-31.476,104.646-21.366,18.894-19.132,50.343-17.652,71.154.365,5.134.68,9.567.594,13.098-.855,35.348,2.832,50.28,45.349,66.992,6.107,2.401,11.792,4.519,16.807,6.389,31.374,11.697,45.693,17.035,48.605,47.931.776,8.23,1.632,21.719,2.714,38.795,3.438,54.209,8.632,136.129,18.371,161.962,12.457,33.045,39.847,89.265,54.414,102.144,7.872,6.964,21.083,11.56,26.98,7.275,5.638-4.089,4.593-15.941-2.946-33.374-1.577-3.645-3.108-7.149-4.582-10.517-18.143-41.49-28.137-64.342-4.749-90.539,23.731-26.579,64.217-89.215,67.419-113.288,3.425-25.746,18.765-40.323,32.447-43.348,14.846-3.283,40.183-11.715,47.417-19.391,4.207-4.465-.445-16.162-5.37-28.546-3.11-7.823-6.326-15.911-8.119-23.833-5.381-23.792-3.496-36.875,36.882-54.016,14.029-5.954,21.169-16.038,20.108-28.394-1.418-16.495-18.836-37.967-53.729-46.135-38.657-9.05-67.578-25.158-79.345-44.198-5.235-8.47-6.854-17.117-4.811-25.697,3.697-15.529-10.221-19.803-33.236-25.489-9.912-2.45-20.162-4.984-28.709-9.234-12.333-6.134-18.771-13.828-24.999-21.269-7.037-8.41-13.685-16.353-28.642-21.357-37.265-12.466-63.657-5.92-79.238,1.766Z"/>
                <path d="M1539.396,1745.661c-4.423,0-8.603-2.214-12.325-6.585-19.156-22.498-23.723-106.197,5.52-148.934,33.523-48.997,11.228-87.229.086-101.391-8.618-10.951-9.996-58.882-9.634-97.162l.017-2.156c0-.468.068-1.206.165-2.167.592-5.883,1.981-19.662-9.1-30.068-13.965-13.111-42.411-16.242-84.548-9.301-36.679,6.055-63.641.588-80.137-16.218-18.028-18.368-23.198-49.268-15.366-91.841,3.779-20.558.356-37.113-2.665-51.718-1.785-8.627-3.47-16.776-3.47-24.751,0-24.614,33.864-44.998,62.272-57.766,17.078-7.675,29.167-16.795,40.858-25.615,10.851-8.185,21.1-15.918,33.91-21.131,18.592-7.578,26.246,5.272,33.643,17.692,4.036,6.778,8.21,13.787,14.314,18.816,6.906,5.688,11.391,3.639,18.179.534,9.314-4.261,20.902-9.565,42.552,3.813,26,16.07,55.062,9.039,66.515-.77,2.886-2.47,7.374-7.456,5.002-13.083-3.068-7.28-9.653-9.706-17.276-12.517-10.013-3.69-21.363-7.872-28.436-23.605-7.795-17.34,6.752-28.718,19.587-38.757,8.92-6.977,18.144-14.193,19.898-22.863,1.723-8.516-2.311-19.539-11.064-30.241-9.27-11.333-21.936-19.878-29.465-19.878-4.501,0-5.719,8.548-7.13,18.447-2.204,15.476-5.224,36.669-24.164,43.224-12.226,4.231-22.148-.333-35.883-6.651-13.41-6.168-30.099-13.845-56.587-17.359-16.436-2.18-29.54-1.448-40.066-.863-15.923.888-27.423,1.53-37.45-8.563-12.244-12.322-15.984-34.146-8.004-46.702,9.826-15.465,27.992-21.702,55.53-19.069,18.015,1.721,31.704-.892,39.593-7.559,6.268-5.297,6.766-11.249,6.784-11.5,6.207-42.998.367-57.168-5.622-61.512-4.492-3.257-10.134-1.618-14.077.331-1.535.86-6.055,8.464-10.042,15.175-11.74,19.756-27.82,46.854-42.54,43.736-10.113-2.113-16.882-17.997-20.693-48.555-5.465-43.827-.37-71.764,15.143-83.038,13.784-10.013,30.408-2.914,32.065-2.163,28.848,10.026,51.635,10.092,67.731.204,17.975-11.045,24.339-32.608,26.511-48.753.162-1.204,1.254-2.047,2.471-1.884,1.203.163,2.047,1.268,1.885,2.472-2.3,17.085-9.123,39.96-28.567,51.909-17.293,10.625-41.374,10.685-71.574.167-.07-.024-.141-.054-.207-.084-.156-.073-15.668-7.106-27.761,1.708-9.692,7.067-19.874,26.495-13.338,78.917,4.361,34.961,11.778,43.659,17.232,44.801,11.617,2.435,28.059-25.182,37.864-41.681,6.252-10.522,9.367-15.632,11.871-16.87,7.109-3.514,13.715-3.495,18.605.054,10.138,7.353,12.631,29.398,7.41,65.524,0,.137-.535,7.739-8.179,14.283-8.928,7.642-23.396,10.56-42.985,8.691-25.737-2.457-42.549,3.12-51.403,17.053-6.855,10.785-3.322,30.445,7.413,41.248,8.636,8.692,18.759,8.125,34.088,7.273,10.711-.596,24.042-1.341,40.887.895,27.146,3.6,44.89,11.762,57.847,17.722,13.279,6.11,22.052,10.144,32.609,6.49,16.405-5.675,19.092-24.536,21.251-39.69,1.699-11.923,3.166-22.221,11.48-22.221,8.858,0,22.68,9.037,32.866,21.49,5.636,6.891,14.687,20.46,11.969,33.895-2.075,10.26-11.948,17.984-21.496,25.452-12.686,9.923-24.669,19.295-18.286,33.494,6.316,14.049,16.296,17.728,25.947,21.286,8.227,3.032,15.997,5.896,19.805,14.931,2.525,5.99.267,12.599-6.193,18.13-14.831,12.702-46.453,16.757-71.683,1.169-19.644-12.137-29.616-7.578-38.413-3.555-7.085,3.24-13.773,6.299-22.801-1.139-6.695-5.514-11.264-13.189-15.296-19.958-7.612-12.781-13.116-22.024-28.211-15.873-12.278,4.999-22.305,12.564-32.92,20.571-11.332,8.55-24.174,18.239-41.704,26.115-38.484,17.295-59.679,36.388-59.679,53.758,0,7.524,1.641,15.461,3.379,23.86,3.102,14.999,6.618,31.998,2.683,53.402-7.558,41.087-2.786,70.682,14.181,87.969,15.436,15.727,41.107,20.756,76.288,14.963,43.56-7.177,73.256-3.669,88.27,10.432,12.663,11.891,11.066,27.744,10.464,33.711-.077.766-.143,1.354-.143,1.727l-.017,2.197c-.495,52.346,2.674,86.754,8.694,94.405,11.741,14.924,35.254,55.189.087,106.588-28.302,41.364-24.177,122.025-5.801,143.604,4.227,4.965,8.715,6.237,13.721,3.877,16.723-7.874,33.818-28.437,51.917-50.208,16.109-19.374,32.766-39.411,51.346-53.542,37.17-28.267,93.767-158.72,71.06-199.124-15.912-28.321,3.644-52.587,20.899-73.995,8.278-10.271,16.098-19.973,18.536-28.654,7.773-27.662,3.831-40.405-7.328-56.949-8.486-12.588-17.182-40.819,19.905-88.484,6.163-7.921,8.677-16.443,7.47-25.328-2.644-19.477-22.004-36.495-33.309-44.906-2.061-1.534-2.928-4.012-2.263-6.467.669-2.472,2.77-4.255,5.352-4.544,19.515-2.18,67.123,3.798,87.614,106.277,11.287,56.447,21.036,85.881,28.976,87.484,3.521.695,7.673-5.448,11.352-10.876,1.987-2.933,4.042-5.965,6.197-8.331,5.092-5.593,3.991-13.433,2.595-23.356-1.964-13.972-4.408-31.359,11.102-48.957,3.827-4.345,7.398-9.417,10.614-15.077,13.803-24.294,17.117-53.58,9.091-80.352-.349-1.163.311-2.386,1.474-2.736,1.164-.339,2.387.311,2.735,1.474,8.369,27.916,4.913,58.453-9.479,83.785-3.365,5.919-7.112,11.24-11.139,15.81-14.174,16.081-11.982,31.679-10.048,45.44,1.432,10.185,2.785,19.805-3.698,26.924-1.943,2.135-3.908,5.036-5.809,7.84-4.663,6.885-9.461,14.017-15.858,12.717-7.335-1.48-16.923-13.44-32.416-90.927-19.778-98.913-64.513-104.843-82.817-102.771-1.186.131-1.523,1.047-1.598,1.324-.089.328-.204,1.161.646,1.792,11.857,8.825,32.179,26.772,35.04,47.841,1.371,10.101-1.441,19.73-8.357,28.619-26.226,33.704-33.232,63.297-19.729,83.328,13.329,19.762,15.253,34.485,7.916,60.594-2.683,9.548-10.777,19.591-19.346,30.222-16.379,20.322-34.944,43.357-20.49,69.084,24.088,42.863-33.153,175.058-72.229,204.776-18.182,13.828-34.676,33.668-50.628,52.855-18.419,22.155-35.817,43.082-53.425,51.37-2.244,1.058-4.457,1.583-6.612,1.583Z"/>
                <path d="M817.099,1340.171c-3.739,0-7.901-1.174-12.455-3.519-13.617-7.012-47.826-43.52-79.348-90.275-21.708-32.2-57.773-92.989-55.396-138.333.317-6.057.597-11.876.869-17.495,3.158-65.527,5.065-105.079,50.328-177.191,9.322-14.853,14.894-34.24,16.562-57.624.087-1.21,1.124-2.135,2.348-2.034,1.21.086,2.121,1.137,2.035,2.347-1.721,24.109-7.516,44.179-17.223,59.646-44.653,71.139-46.431,108.053-49.661,175.069-.271,5.626-.553,11.451-.87,17.514-4.096,78.166,107.288,211.555,132.369,224.472,6.725,3.463,12.197,3.946,16.263,1.44,7.836-4.832,11.681-20.531,11.429-46.661-.232-24.157-9.721-54.443-28.204-90.018-14.004-26.952-18.013-49.169-11.916-66.037,2.36-6.531,8.16-11.423,15.516-13.083,8.699-1.972,17.971.888,24.795,7.636,12.841,12.695,42.781,22.61,55.8,15.358,10.512-5.859,11.563-23.191,12.49-38.482.559-9.213,1.041-17.171,3.482-22.208,2.854-5.892,10.657-10.753,19.693-16.381,12.36-7.7,27.743-17.284,35.778-32.831,14.949-28.93,41.733-41.226,67.636-53.117,10.361-4.755,20.256-8.554,28.986-11.905,14.648-5.621,26.218-10.063,28.848-14.879,1.774-3.251,1.688-8.861,1.577-15.963-.151-9.773-.34-21.936,4.164-35.253,2.502-7.398,6.123-15.203,9.626-22.751,6.899-14.869,14.033-30.245,9.245-36.97-3.918-5.505-25.888-31.372-73.702-.154-29.416,19.209-43.599,25.176-54.192,22.762-8.152-1.847-13.426-8.958-17.51-15.671-5.998-9.857-4.284-26.281,4.368-41.842,13.574-24.412,38.633-39.143,67.035-39.405,41.82-.388,64.106-10.054,66.242-28.731,1.284-11.228-15.337-24.749-33.556-27.298-10.272-1.429-15.506.929-32.857,8.765-13.333,6.02-33.484,15.117-67.974,27.836-31.123,11.474-64.964,14.439-103.463,9.054-1.516-.21-3.066-.373-4.608-.483-1.21-.084-2.122-1.135-2.037-2.345.086-1.208,1.135-2.148,2.346-2.036,1.64.114,3.291.287,4.907.513,37.762,5.28,70.907,2.394,101.333-8.827,34.345-12.663,54.41-21.724,67.687-27.718,17.763-8.02,23.747-10.736,35.274-9.11,21.114,2.954,38.898,18.276,37.313,32.146-2.429,21.239-26.171,32.215-70.568,32.627-26.801.247-50.44,14.135-63.235,37.145-7.897,14.203-9.645,28.894-4.454,37.424,5.178,8.511,9.445,12.472,14.726,13.669,9.144,2.068,22.913-3.935,50.818-22.155,51.18-33.419,75.357-4.795,79.684,1.283,6.27,8.805-1.069,24.622-8.838,41.368-3.452,7.443-7.023,15.139-9.449,22.309-4.261,12.599-4.08,24.343-3.933,33.779.12,7.748.215,13.867-2.114,18.136-3.404,6.233-15.034,10.698-31.129,16.875-8.669,3.328-18.494,7.1-28.729,11.798-30.994,14.227-52.303,25.474-65.565,51.139-8.589,16.619-24.539,26.557-37.357,34.543-8.458,5.269-15.762,9.82-18.062,14.566-2.062,4.257-2.542,12.176-3.05,20.561-.995,16.415-2.124,35.024-14.738,42.052-16.337,9.104-48.287-3.471-61.028-16.07-5.753-5.69-13.509-8.104-20.737-6.475-5.887,1.33-10.505,5.177-12.353,10.292-5.662,15.667-1.731,36.699,11.682,62.519,18.806,36.195,28.462,67.149,28.7,92,.271,28.169-4.15,44.67-13.517,50.444-2.428,1.498-5.143,2.244-8.127,2.244Z"/>
                <path d="M1747.44,1785.585c-2.279,0-4.582-.418-6.801-1.277-7.146-2.768-11.85-9.507-11.984-17.166-.098-5.563-.085-10.957-.072-16.173l.007-4.892c0-28.774,29.222-46.112,46.681-56.472,18.743-11.116,47.002-41.608,48.132-71.755,1.02-27.25,15.661-38.98,28.578-49.33,2.876-2.304,5.592-4.48,8.147-6.795,14.264-12.929,19.464-47.251,16.1-71.635-3.829-27.761,3.156-35.371,18.291-40.36,6.34-2.088,9.097-9.47,11.529-15.984,2.593-6.945,5.288-14.122,12.432-12.549,3.718.815,6.796,5.662,9.686,15.25,4.547,15.085,4.728,31.129.519,46.399-30.38,110.229-88.344,212.875-167.629,296.844-3.626,3.84-8.561,5.894-13.617,5.894ZM1916.745,1425.398c-2.596,0-4.084,3.203-6.58,9.887-2.64,7.069-5.927,15.871-14.27,18.621-13.375,4.407-18.759,10.59-15.313,35.584,3.594,26.053-1.971,61.414-17.503,75.492-2.652,2.403-5.548,4.725-8.349,6.969-12.778,10.236-25.99,20.822-26.934,46.062-1.191,31.782-30.708,63.763-50.282,75.372-16.655,9.88-44.529,26.42-44.529,52.692l-.007,4.9c-.013,5.197-.026,10.567.072,16.087.103,5.866,3.704,11.026,9.176,13.146,5.467,2.118,11.608.732,15.637-3.536,78.793-83.448,136.399-185.457,166.588-294.995,3.988-14.469,3.818-29.673-.491-43.962-3.323-11.028-5.931-12.122-6.421-12.23-.277-.06-.541-.09-.794-.09Z"/>
              </g>
            </g>
            <g>
              <path d="M907.614,1418.431c-10.234-2.471-17.51-11.346-18.421-21.834-32.821-377.957,121.728-509.555,288.428-659.445,17.738-15.95,323.595,165.3,408.003,623.205,3.248,17.62-7.414,34.829-24.686,39.592-89.553,24.698-366.292,87.787-653.324,18.482Z"/>
              <g>
                <path d="M910.01,1383.775c-34.05-263.236,68.376-438.016,272.674-621.287,4.18-3.749,10.36-4.164,15.073-1.113,246.766,159.764,337.159,498.229,358.633,595.63,3.216,14.589-6.351,28.921-21.047,31.607-295.699,54.05-316.575,44.209-602.349,17.229-11.854-1.119-21.456-10.258-22.984-22.066Z" style="fill: #fff;"/>
                <path d="M1219.839,1429.899c-60.901,0-123.018-6.025-218.638-15.298-21.063-2.045-43.752-4.244-68.413-6.574-12.822-1.21-23.316-11.292-24.956-23.972-16.512-127.655-1.09-239.473,47.148-341.849,43.657-92.652,115.546-182.056,226.237-281.354,4.88-4.381,12.172-4.924,17.735-1.324,246.745,159.752,337.612,497.342,359.584,597.004,1.681,7.627.224,15.413-4.102,21.925-4.34,6.531-10.98,10.903-18.696,12.313-154.886,28.312-234.299,39.128-315.899,39.128ZM1190.925,761.551c-2.45,0-4.875.869-6.772,2.573-224.073,201.01-302.866,380.453-271.963,619.371,1.379,10.661,10.215,19.14,21.011,20.162,24.666,2.328,47.358,4.529,68.425,6.572,223.224,21.653,263.444,25.553,533.322-23.777,6.532-1.195,12.152-4.896,15.825-10.425,3.661-5.507,4.894-12.094,3.471-18.548-21.881-99.248-112.341-435.418-357.681-594.258-1.728-1.12-3.693-1.669-5.639-1.669Z"/>
              </g>
              <g>
                <path d="M961.056,1383.743c-12.161-194.573,54.113-377.725,226.191-530.212,199.438,158.091,249.751,275.442,316.181,496.162-228.624,51.075-282.131,58.372-542.373,34.05Z" style="fill: #fff;"/>
                <path d="M1178.316,1399.291c-58.059,0-124.609-4.684-217.464-13.36-1.077-.101-1.92-.972-1.988-2.051-13.003-208.048,63.346-387.036,226.927-531.992.797-.708,1.99-.742,2.821-.077,198.892,157.655,249.304,272.585,316.92,497.25.176.583.101,1.216-.207,1.742-.309.528-.822.901-1.417,1.034-147.235,32.893-223.212,47.455-325.592,47.455ZM963.134,1381.73c253.491,23.635,309.857,17.149,537.509-33.666-66.837-221.721-117.267-335.899-313.317-491.665-161.08,143.355-236.493,320.087-224.193,525.33Z"/>
              </g>
              <g>
                <path d="M1048.614,1308.345c4.279-128.608,55.359-237.124,141.066-330.775,96.251,80.007,162.005,184.522,197.005,313.749-140.865,39.784-242.262,31.789-338.071,17.025Z" style="fill: #fff;"/>
                <path d="M1185.901,1322.602c-51.507,0-96.564-5.759-137.622-12.086-1.099-.169-1.898-1.133-1.861-2.244,4.122-123.885,50.452-232.543,141.64-332.183.791-.867,2.121-.959,3.025-.206,96.29,80.037,162.813,185.972,197.722,314.863.314,1.163-.365,2.362-1.523,2.688-77.526,21.897-143.521,29.168-201.381,29.168ZM1050.879,1306.469c85.929,13.165,189.593,23.474,333.114-16.675-34.623-126.329-99.916-230.337-194.107-309.19-89.033,97.883-134.526,204.527-139.007,325.865Z"/>
              </g>
              <path d="M1199.407,1395.667c-1.184,0-2.162-.944-2.195-2.135l-2-70.493c-.034-1.212.92-2.225,2.134-2.259,1.186.058,2.224.923,2.258,2.135l2,70.493c.034,1.212-.92,2.225-2.134,2.259h-.063Z"/>
              <path d="M1197.408,1325.174c-1.193,0-2.171-.955-2.196-2.152l-6.927-345.415c-.024-1.214.94-2.216,2.153-2.242,1.236.075,2.216.94,2.241,2.152l6.927,345.415c.024,1.214-.94,2.216-2.153,2.242h-.045Z"/>
              <path d="M1190.481,979.759c-1.191,0-2.169-.953-2.195-2.148l-4.456-199.785c-.027-1.214.935-2.218,2.148-2.246,1.177.011,2.218.935,2.246,2.148l4.454,199.785c.028,1.214-.934,2.218-2.147,2.246h-.05Z"/>
              <path d="M1546.042,1372.53c-.332,0-.668-.075-.985-.234l-158.893-79.902c-1.085-.545-1.521-1.867-.976-2.95.546-1.083,1.865-1.517,2.95-.976l158.893,79.902c1.085.545,1.521,1.867.976,2.95-.386.768-1.161,1.21-1.965,1.21Z"/>
              <path d="M1048.615,1310.542c-.643,0-1.28-.281-1.714-.822-.76-.946-.608-2.328.337-3.087l148.362-119.175c.687-.554,1.632-.639,2.409-.227l190.174,101.262c1.071.571,1.476,1.901.907,2.972-.571,1.075-1.899,1.485-2.973.908l-188.894-100.582-147.233,118.268c-.407.326-.893.485-1.375.485Z"/>
              <path d="M971.697,1382.337c-.587,0-1.172-.234-1.605-.697-.829-.886-.782-2.276.104-3.105l78.538-73.416c.887-.828,2.279-.781,3.106.105.829.886.782,2.276-.104,3.105l-78.538,73.416c-.424.397-.963.592-1.501.592Z"/>
              <g>
                <path d="M1190.229,980.199c91.614,71.384,156.418,175.934,196.455,311.121l-195.054-103.096-1.401-208.025Z" style="fill: #fff;"/>
                <path d="M1386.684,1293.517c-.351,0-.704-.084-1.027-.255l-195.054-103.097c-.716-.378-1.165-1.118-1.17-1.927l-1.401-208.024c-.005-.843.471-1.614,1.226-1.987.756-.369,1.657-.279,2.322.238,90.351,70.399,156.703,175.448,197.212,312.23.251.847-.031,1.764-.715,2.324-.401.328-.896.498-1.392.498ZM1193.818,1186.895l189.258,100.033c-39.824-131.634-103.928-233.253-190.619-302.18l1.361,202.147Z"/>
              </g>
            </g>
          </g>
          <g>
            <g>
              <path d="M1393.237,1796.06c-41.377-41.807-104.049-77.884-182.17-104.865-88.004-30.394-148.913-25.424-229.843,17.004-70.635,37.031-141.271,74.061-211.907,111.092-12.619,6.616-25.685,13.39-41.868,16.81-16.624,3.513-35.015,3.16-52.321,5.419-87.592,11.435-162.873,80.711-205.389,120.146-29.117,27.006-58.241,54.01-87.364,81.014-17.154,15.905-7.904,44.603,15.309,47.497l309.658,24.219,394.607-44.197,334.776,25.628,231.605-21.81-275.093-277.958Z" style="fill: #fff;"/>
              <path d="M1665.012,2072.862c-.566,0-1.132-.217-1.562-.652l-271.775-274.606c-41.027-41.454-103.728-77.531-181.325-104.333-87.2-30.115-146.891-25.699-228.106,16.875l-211.906,111.091c-12.056,6.319-25.718,13.48-42.433,17.014-10.084,2.131-20.912,2.866-31.385,3.581-6.985.474-14.208.968-21.108,1.867-87.587,11.436-163.431,81.785-204.178,119.579l-79.009,73.266c-.888.826-2.279.772-3.105-.118-.825-.888-.772-2.279.118-3.105l79.007-73.266c41.106-38.126,117.62-109.096,206.598-120.712,7.035-.918,14.327-1.416,21.378-1.897,10.321-.702,20.993-1.429,30.774-3.495,16.12-3.407,29.499-10.419,41.301-16.606l211.906-111.091c82.455-43.224,143.054-47.71,231.582-17.136,78.23,27.021,141.515,63.465,183.014,105.397l271.775,274.606c.853.862.847,2.253-.016,3.107-.429.423-.987.635-1.546.635Z"/>
              <g>
                <path d="M1552.871,1980.535c-7.683-7.54-16.433-14.75-26.172-21.564l-199.402-139.504c-23.919-16.735-58.601-28.023-97.196-31.636l-69.861-6.539c-33.227-3.517-67.661.707-94.804,11.628l-50.406,20.283-66.195-4.465c-32.205-2.173-64.148,4.975-84.052,18.806l-149.941,104.197-38.207-13.961c-35.463-12.959-83.699-7.872-107.507,11.337l-87.861,88.539c-17.012,17.143-8.94,46.283,14.468,52.229l205.748,25.469,179.432,6.193,762.049-32.585-90.093-88.428Z" style="fill: #fff;"/>
                <path d="M881.009,2103.743l-179.601-6.192-205.943-25.485c-.091-.011-.181-.028-.27-.052-11.767-2.989-20.727-11.757-23.968-23.459-3.241-11.7-.071-23.828,8.48-32.445l87.861-88.539c.057-.058.117-.112.18-.163,24.343-19.642,73.525-24.888,109.641-11.693l37.135,13.57,149.005-103.545c20.192-14.034,52.94-21.378,85.454-19.196l65.693,4.435,49.939-20.097c27.413-11.03,62.35-15.323,95.857-11.775l69.834,6.535c39.07,3.658,73.963,15.032,98.25,32.024l199.402,139.504c9.805,6.859,18.705,14.193,26.451,21.794h.001l90.094,88.43c.624.614.825,1.538.512,2.356-.314.817-1.082,1.371-1.957,1.407l-762.051,32.584ZM496.145,2067.724l205.609,25.452,179.237,6.177,756.821-32.367-86.481-84.883c-7.575-7.432-16.284-14.609-25.892-21.331l-199.402-139.504c-23.674-16.564-57.818-27.66-96.141-31.247l-69.86-6.54c-32.838-3.482-67.011.708-93.78,11.479l-50.405,20.284c-.308.124-.639.172-.969.155l-66.195-4.467c-31.58-2.139-63.24,4.928-82.65,18.419l-149.941,104.195c-.588.41-1.338.508-2.008.26l-38.207-13.961c-34.777-12.714-81.969-7.816-105.28,10.91l-87.775,88.452c-7.427,7.484-10.179,18.018-7.365,28.179,2.803,10.116,10.529,17.711,20.684,20.34Z"/>
              </g>
              <path d="M1270.474,1975.309c-33.192-4.622-74.863,8.12-101.665-4.244-17.637-8.136-18.92-23.451-34.755-32.672-20.749-12.083-56.033-8.962-85.118-4.934-165.194,22.883-308.059,121.687-436.625,183.618l65.661,22.709c24.314,8.409,155.976,6.252,181.697,6.832l284.148-19.041c14.88.66,93.578-8.657,108.386-10.253l205.055,20.505,185.706-43.2c-83.488-41.373-159.707-87.564-277.59-93.733-14.206-.743-29.032-.886-41.739-4.513-16.559-4.727-26.926-14.67-43.678-19.18-3.065-.825-6.233-1.444-9.483-1.897Z" style="fill: #fff;"/>
              <path d="M612.313,2119.274c-.817,0-1.602-.457-1.98-1.244-.527-1.092-.068-2.405,1.026-2.933,31.985-15.407,64.435-32.872,98.79-51.364,100.334-54.003,214.057-115.213,338.487-132.45,30.99-4.295,65.505-7.029,86.526,5.211,7.797,4.54,12.217,10.455,16.492,16.173,4.732,6.329,9.201,12.309,18.078,16.403,15.286,7.054,35.564,5.666,57.032,4.197,14.827-1.015,30.16-2.06,44.014-.133,3.449.481,6.729,1.137,9.751,1.95,8.776,2.362,15.882,6.194,22.756,9.897,6.714,3.62,13.057,7.037,20.954,9.29,10.557,3.014,22.892,3.579,34.821,4.126,2.151.099,4.297.195,6.43.307,103.952,5.441,177.243,42.672,248.121,78.677,8.113,4.121,16.239,8.249,24.425,12.341,1.085.543,1.525,1.862.983,2.948-.542,1.083-1.862,1.525-2.948.983-8.194-4.096-16.327-8.228-24.45-12.354-73.712-37.446-143.337-72.815-246.359-78.204-2.123-.111-4.26-.21-6.401-.307-12.181-.558-24.776-1.135-35.826-4.289-8.357-2.386-15.208-6.078-21.833-9.648-6.958-3.75-13.53-7.293-21.814-9.522-2.847-.768-5.946-1.388-9.215-1.843-13.404-1.864-28.504-.833-43.109.165-22.045,1.506-42.867,2.929-59.173-4.589-9.889-4.561-14.905-11.273-19.756-17.763-4.197-5.613-8.16-10.916-15.185-15.006-19.861-11.569-53.463-8.844-83.711-4.658-123.647,17.13-236.999,78.14-337.008,131.969-34.399,18.514-66.89,36.002-98.965,51.454-.308.148-.633.217-.953.217Z"/>
            </g>
            <path d="M1610.861,1848.984c-20.999-18.855-60.637-20.134-83.954-2.708l-13.611,10.172c-10.398,7.771-27.441,8.592-39.221,1.888l-5.009-2.85c-13.829-7.869-33.145-8.68-48.183-2.023l-20.985,9.29c-11.122,4.924-21.02,11.122-29.293,18.343l-305.882,258.2,124.205,9.918c32.198,9.92,65.811,14.467,99.488,13.459l162.869-4.876c20.55-.615,41.02-2.842,61.222-6.66l189.353-23.558,197.732-17.576-288.731-261.018Z" style="fill: #fff;"/>
          </g>
        </g>
        <path d="M1064.725,2141.494c-.624,0-1.245-.266-1.68-.779-.783-.929-.665-2.315.262-3.098l305.882-258.199c8.433-7.361,18.475-13.65,29.821-18.673l20.984-9.29c15.619-6.919,35.775-6.061,50.159,2.122l5.009,2.849c10.982,6.25,27.154,5.488,36.818-1.738l13.611-10.172c24.301-18.162,64.831-16.836,86.737,2.834l268.123,240.758c.903.811.978,2.199.167,3.102-.811.903-2.199.983-3.102.167l-268.123-240.758c-20.12-18.07-58.81-19.299-81.172-2.585l-13.611,10.172c-11.139,8.329-29.034,9.202-41.622,2.038l-5.009-2.849c-13.23-7.529-31.8-8.299-46.207-1.925l-20.984,9.29c-10.942,4.845-20.611,10.897-28.737,17.99l-305.91,258.223c-.412.35-.915.519-1.416.519Z"/>
        <g>
          <g>
            <g>
              <polygon points="2042.591 2024.317 2039.971 2072.617 2007.677 2078.063 2004.805 2021.096 2042.591 2024.317" style="fill: #fff;"/>
              <path d="M2007.678,2080.26c-.497,0-.983-.169-1.375-.485-.489-.393-.787-.974-.819-1.601l-2.873-56.968c-.032-.635.211-1.251.667-1.693.457-.44,1.089-.676,1.713-.607l37.786,3.222c1.182.101,2.072,1.122,2.007,2.306l-2.62,48.3c-.056,1.028-.815,1.877-1.828,2.049l-32.293,5.445c-.122.019-.245.03-.366.03ZM2007.126,2023.498l2.621,51.988,28.126-4.744,2.408-44.417-33.155-2.828Z"/>
            </g>
            <g>
              <path d="M2006.779,2161.959c13.634,1.222,35.919,1.779,61.799-3.143,8.482-1.613,13.725-10.183,11.243-18.452-6.915-23.037-19.033-66.78-37.037-86.428l-3.655,11.334-6.35-10.178c-.87-1.394-2.351-2.291-3.989-2.415l-12.834-.973c-2.681-.203-5.069,1.685-5.49,4.341l-1.543,9.751-5.085-12.442-10.185,92.966c-.641,7.93,5.202,14.929,13.127,15.639Z" style="fill: #fff;"/>
              <path d="M2026.07,2165c-7.509,0-14.089-.369-19.488-.852-9.074-.813-15.858-8.891-15.119-18.005l10.189-93.028c.109-1,.883-1.798,1.878-1.937.999-.148,1.96.416,2.34,1.345l2.11,5.162.314-1.985c.595-3.757,4.02-6.518,7.825-6.188l12.836.974c2.325.176,4.451,1.463,5.687,3.439l3.847,6.168,2.205-6.831c.24-.745.858-1.307,1.622-1.472.768-.172,1.561.084,2.089.661,17.123,18.69,28.967,58.523,36.043,82.324l1.478,4.958c1.357,4.521.731,9.427-1.72,13.463-2.461,4.055-6.549,6.889-11.217,7.778-16.03,3.049-30.704,4.025-42.918,4.025ZM2006.975,2159.771c13.901,1.245,35.803,1.714,61.191-3.113,3.448-.656,6.467-2.748,8.283-5.739,1.831-3.019,2.282-6.542,1.266-9.923l-1.48-4.967c-6.609-22.23-17.442-58.667-32.569-77.67l-2.447,7.584c-.263.815-.973,1.401-1.822,1.506-.859.099-1.682-.294-2.134-1.017l-6.35-10.178c-.497-.796-1.354-1.315-2.291-1.386l-12.834-.974c-1.543-.135-2.915.981-3.153,2.493l-1.543,9.751c-.155.974-.938,1.725-1.917,1.839-.978.129-1.913-.438-2.287-1.352l-1.811-4.428-9.241,84.362c-.537,6.66,4.456,12.613,11.138,13.212Z"/>
            </g>
            <path d="M2036.141,2149.093c-18.075,0-31.714-3.09-32.606-3.298-1.182-.272-1.917-1.452-1.643-2.635.275-1.18,1.457-1.92,2.636-1.646.335.077,34.061,7.698,65.431-1.133,1.17-.318,2.382.354,2.71,1.519.329,1.169-.351,2.381-1.519,2.712-12.071,3.398-24.317,4.48-35.009,4.48Z"/>
            <path d="M2019.188,2113.316c-1.195,0-2.174-.959-2.196-2.158-.02-1.214.946-2.214,2.158-2.236l30.501-.53c1.249,0,2.214.946,2.236,2.158.02,1.214-.946,2.214-2.158,2.236l-30.501.53h-.04Z"/>
            <g>
              <polygon points="1889.144 2006.41 1887.811 2076.767 1848.722 2078.738 1843.369 2008.718 1889.144 2006.41" style="fill: #fff;"/>
              <path d="M1848.72,2080.934c-1.14,0-2.101-.88-2.189-2.03l-5.353-70.019c-.045-.59.15-1.176.542-1.62.391-.444.946-.712,1.538-.742l45.775-2.309c.601-.062,1.201.193,1.639.618.438.423.679,1.011.668,1.618l-1.332,70.358c-.023,1.154-.933,2.096-2.086,2.154l-39.089,1.97c-.038.002-.075.002-.113.002ZM1845.731,2010.799l5.018,65.636,34.905-1.759,1.249-65.953-41.172,2.077Z"/>
            </g>
            <g>
              <path d="M1900.019,2115.832c.433,6.628-3.805,12.679-10.19,14.508-22.209,6.364-72.244,20.561-86.576,23.439-18.601,3.736-41.924-.845-52.378-11.307-10.454-10.462,20.302-38.254,35.045-48.545,21.901-15.287,42.217-44.344,51.263-46.061,9.047-1.717,27.385,23.854,27.385,23.854l27.209-13.077s6.046,23.576,8.241,57.189Z" style="fill: #fff;"/>
              <path d="M1789.77,2157.265c-16.068,0-32.212-4.995-40.45-13.24-2.088-2.09-3.002-4.782-2.717-8.005,1.233-13.95,26.173-35.597,38.058-43.895,10.742-7.497,20.999-18.261,30.05-27.759,9.772-10.256,16.833-17.666,22.061-18.658,9.071-1.751,23.635,16.684,28.493,23.24l25.56-12.285c.593-.283,1.282-.288,1.88-.011.596.277,1.036.809,1.2,1.446.061.236,6.122,24.159,8.306,57.59.497,7.614-4.456,14.665-11.778,16.763-21.259,6.091-72.268,20.573-86.749,23.481-4.497.903-9.203,1.332-13.915,1.332ZM1838.167,2049.974c-.2,0-.39.017-.574.051-3.842.73-11.545,8.814-19.7,17.372-9.194,9.646-19.613,20.582-30.716,28.332-14.566,10.17-35.249,29.962-36.196,40.677-.167,1.892.307,3.368,1.449,4.512,9.718,9.73,31.853,14.435,50.391,10.706,14.324-2.875,65.196-17.319,86.404-23.395,5.348-1.534,8.966-6.688,8.603-12.253-1.742-26.682-5.968-47.161-7.558-54.17l-24.749,11.895c-.96.461-2.117.165-2.737-.7-7.027-9.794-19.038-23.028-24.617-23.028Z"/>
            </g>
            <path d="M1788.13,2144.422c-12.144,0-22.813-2.336-30.19-8.35-.941-.768-1.081-2.152-.314-3.092.768-.94,2.151-1.079,3.091-.315,30.295,24.708,127.066-20.196,128.04-20.655,1.101-.515,2.407-.041,2.921,1.056.515,1.099.042,2.407-1.057,2.922-3.151,1.478-61.267,28.435-102.491,28.435Z"/>
            <path d="M1834.409,2099.637c-.488,0-.978-.161-1.386-.494l-20.786-16.932c-.941-.766-1.082-2.15-.317-3.092.768-.938,2.152-1.081,3.091-.315l20.786,16.932c.941.766,1.083,2.15.316,3.092-.434.532-1.067.809-1.705.809Z"/>
            <path d="M2016.512,1538.14s35.99,221.538,46.144,296.88c10.154,75.342-4.874,198.031-4.874,198.031l-60.497-.128s-11.592-147.669-18.146-188.507c0,0-28.293-54.385-38.351-103.653-10.058-49.269-39.743-126.396-39.743-126.396,0,0-1.157,392.483-1.62,423.337,0,0-47.208,4.492-64.709-5.325,0,0-37.254-141.212-36.854-219.084.4-77.872,1.251-272.753,1.251-272.753l217.4-2.402Z"/>
            <path d="M1990.246,1846.039c-1.163,0-2.133-.912-2.192-2.085-.061-1.212.871-2.244,2.083-2.306l18.444-.929c1.225-.077,2.244.871,2.304,2.083.061,1.212-.871,2.244-2.083,2.306l-18.444.929c-.038.002-.075.002-.113.002Z" style="fill: #fff;"/>
            <path d="M1864.61,1966.506c-1.145,0-2.11-.886-2.19-2.047-2.413-35.049-46.157-99.014-46.598-99.658-.688-1-.436-2.367.564-3.055,1.002-.687,2.369-.433,3.055.566,1.831,2.66,44.867,65.608,47.361,101.846.084,1.21-.83,2.259-2.04,2.343-.051.002-.103.004-.153.004Z" style="fill: #fff;"/>
          </g>
          <g>
            <g>
              <path d="M1852.21,1213.879c-69.206,129.624-62.615,186.747-160.099,53.05l-10.49,52.799s185.969,284.122,153.014,8.396l17.576-114.245Z" style="fill: #fff;"/>
              <path d="M1811.135,1450.692c-45.862.013-127.699-124.177-131.354-129.759-.314-.483-.428-1.068-.316-1.633l10.49-52.799c.171-.854.83-1.528,1.682-1.717.86-.176,1.735.146,2.248.852,41.163,56.453,62.329,76.932,78.284,75.441,16.166-1.487,28.798-27.864,47.917-67.79,8.504-17.759,18.143-37.888,30.184-60.442.504-.944,1.618-1.382,2.633-1.051,1.016.339,1.64,1.36,1.477,2.42l-17.53,113.949c8.807,73.926,2.856,113.591-18.193,121.257-2.373.863-4.892,1.272-7.523,1.272ZM1683.951,1319.27c7.367,11.086,94.243,140.253,133.204,126.02,12.796-4.66,25.836-28.724,15.296-116.903-.024-.2-.019-.399.011-.597l15.578-101.256c-9.231,17.832-16.996,34.045-23.99,48.652-20.471,42.75-32.827,68.552-51.478,70.268-17.53,1.551-38.457-17.63-79.282-73.19l-9.339,47.006Z"/>
            </g>
            <g>
              <path d="M2015.497,1547.524l-218.787,9.834,20.348-233.628h-35.152l24.452-66.795c13.139-35.891,45.806-61.008,83.879-64.36,31.925-2.811,74.592-4.955,124.893-3.593,27.371.741,53.356,12.105,72.542,31.64,26.656,27.14,62.929,68.634,72.845,102.252l-119.47,45.093-11.369-16.76s-19.171,104.057-14.18,196.317Z" style="fill: #fff;"/>
              <path d="M1796.71,1559.554c-.597,0-1.17-.242-1.586-.676-.439-.457-.658-1.081-.603-1.712l20.139-231.238h-32.756c-.718,0-1.39-.35-1.801-.938-.411-.59-.508-1.341-.262-2.015l24.451-66.794c13.385-36.56,47.043-62.386,85.749-65.793,40.295-3.549,82.4-4.759,125.145-3.602,28.041.76,54.34,12.23,74.051,32.297,28.006,28.516,63.471,69.562,73.385,103.17.326,1.105-.255,2.272-1.331,2.678l-119.469,45.093c-.949.365-2.023.017-2.594-.822l-8.316-12.257c-3.762,22.417-17.502,111.325-13.222,190.463.032.584-.172,1.159-.565,1.592-.394.435-.944.695-1.53.721l-218.787,9.833c-.033.002-.065.002-.099.002ZM1785.049,1321.533h32.008c.616,0,1.204.257,1.62.712.416.455.622,1.062.569,1.676l-20.129,231.129,214.072-9.623c-4.528-90.923,14.137-193.582,14.328-194.619.161-.875.837-1.568,1.709-1.751.874-.182,1.769.18,2.27.916l10.397,15.326,115.915-43.752c-10.434-32.383-44.594-71.783-71.703-99.385-18.91-19.254-44.138-30.256-71.034-30.984-42.584-1.161-84.515.051-124.641,3.585-37.018,3.259-69.208,27.958-82.01,62.926l-23.37,63.842Z"/>
            </g>
            <path d="M2029.678,1353.405c-.827,0-1.619-.468-1.992-1.268l-21.052-45.086c-.513-1.099-.038-2.407,1.062-2.92,1.1-.506,2.406-.039,2.92,1.062l21.052,45.086c.513,1.099.038,2.407-1.062,2.92-.3.139-.617.206-.928.206Z"/>
          </g>
          <g>
            <path d="M1413.53,862.969c-122.796,30.09-197.719,154.973-167.344,278.934,30.376,123.961,154.547,200.058,277.343,169.968,122.797-30.09,197.719-154.973,167.343-278.934-30.375-123.961-154.545-200.058-277.343-169.968ZM1516.28,1282.288c-106.612,26.124-214.417-39.943-240.789-147.566-26.372-107.623,38.676-216.047,145.288-242.171,106.613-26.124,214.417,39.943,240.789,147.566,26.372,107.623-38.675,216.046-145.288,242.171Z"/>
            <path d="M2108.445,1604.204l-9.897,12.486c-10.145,12.352-31.123-.664-59.82-24.839l-408.992-344.535,26.868-51.451,418.863,351.254c28.697,24.175,43.123,44.733,32.978,57.085Z"/>
          </g>
          <g>
            <path d="M2138.558,1333.348l-88.768,32.759s15.001,138.669-80.862,186.362c0,0-51.953-6.428-69.943,24.435,0,0,36.37-1.643,66.81,6.737,30.44,8.38,211.809-43.917,172.763-250.292Z" style="fill: #fff;"/>
            <path d="M1973.581,1581.908c-3.37,0-6.195-.309-8.37-.908-29.76-8.194-65.765-6.677-66.127-6.66-.8.071-1.561-.367-1.978-1.058-.416-.689-.424-1.549-.018-2.244,17.595-30.183,64.944-26.266,71.441-25.583,92.721-46.7,79.2-177.51,79.052-178.83-.135-1.206.733-2.291,1.939-2.429,1.185-.137,2.292.732,2.428,1.94.039.337,3.701,34.213-4.501,73.476-10.906,52.194-37.718,90.256-77.538,110.068-.385.193-.823.26-1.248.212-.484-.056-46.72-5.409-65.532,19.958,10.551-.159,38.911.212,63.251,6.915,13.295,3.662,69.04-5.842,115.798-48.931,35.678-32.876,74.047-94.06,54.223-198.835-.226-1.191.558-2.341,1.75-2.566,1.201-.221,2.342.558,2.567,1.751,20.198,106.753-19.066,169.252-55.562,202.881-39.174,36.101-88.315,50.843-111.574,50.843Z"/>
          </g>
          <g>
            <path d="M1694.396,1321.628c-18.457-2.496-52.277-12.44-33.135-52.059,1.836-3.801,6.46-5.345,10.257-3.5,11.68,5.677,29.91,25.247,33.555,44.361,1.214,6.364-4.257,12.066-10.677,11.198Z" style="fill: #fff;"/>
            <path d="M1695.716,1323.915c-.534,0-1.073-.037-1.613-.109-13.202-1.785-30.434-6.694-37.553-19.941-4.997-9.294-4.077-21.155,2.733-35.251,1.133-2.345,3.122-4.109,5.599-4.969,2.512-.873,5.21-.712,7.596.448,11.71,5.692,30.825,25.322,34.754,45.925.708,3.718-.389,7.436-3.012,10.204-2.265,2.39-5.298,3.693-8.504,3.693ZM1668.145,1267.485c-.613,0-1.227.103-1.823.311-1.367.474-2.462,1.444-3.083,2.729-6.163,12.755-7.112,23.275-2.819,31.26,6.572,12.227,24.293,16.315,34.271,17.664h.001c2.361.333,4.679-.5,6.339-2.248,1.639-1.729,2.326-4.049,1.885-6.359-3.525-18.486-21.222-37.384-32.358-42.797-.765-.371-1.587-.56-2.413-.56Z"/>
          </g>
          <g>
            <g>
              <path d="M1942.295,1156.91c5.783,5.008,17.021,10.763,25.657,5.381,6.43-4.008,9.907-13.25,9.516-23.459,3.006,0,6.941-.564,9.708-3.427,4.26-4.407,3.329-11.76,3.081-16.622-1.147-22.445,11.19-26.97,7.909-41.986-2.578-11.802-11.633-18.182-13.325-19.375-8.548-6.025-14.229-3.35-28.478-6.045-23.98-4.534-24.916-15.326-40.645-14.016-.91.076-22.309,2.176-29.32,18.408-5.702,13.202,1.45,28.029,8.718,35.516,9.41,9.695,15.959,3.936,25.375,11.936,16.53,14.042,4.624,38.814,21.805,53.691Z"/>
              <g>
                <path d="M1887.104,1112.429c5.064-4.833,10.42-14.395,12.072-21.197,6.031-24.835,28.583-29.418,30.918-5.259.622,6.435,24.601,5.086,21.706,11.825-5.886,13.699-8.17,10.47-6.527,10.345,1.643-.125,5.995-4.693,14.843.706,4.973,3.034,5.45,12.328,2.8,18.853-1.609,3.96-4.65,6.783-7.993,7.922l2.535,33.666c.527,10.454,7.325,19.551,17.201,23.018l9.609,3.374s-42.463,30.872-88.614,1.655l5.814-2.968c10.237-5.226,16.596-15.836,16.378-27.329l-.226-5.454c-2.983.418-5.896.361-8.615-.283-12.648-2.998-17.512-17.152-16.293-35.113l-5.501-5.001c-2.569-2.336-2.618-6.361-.106-8.759Z" style="fill: #fff;"/>
                <path d="M1937.513,1212.013c-13.124,0-27.916-3.248-43.034-12.82-.667-.423-1.057-1.169-1.02-1.957.037-.789.494-1.498,1.196-1.856l5.813-2.967c9.421-4.81,15.38-14.753,15.181-25.332l-.128-3.079c-2.481.15-4.832-.039-7.023-.562-12.613-2.989-19.159-16.205-18.045-36.335l-4.72-4.291c-1.674-1.523-2.651-3.695-2.678-5.956-.028-2.264.896-4.456,2.532-6.018,4.632-4.422,9.878-13.639,11.454-20.127,3.821-15.735,13.882-23.386,21.833-22.835,7.364.524,12.375,7.209,13.407,17.885.146,1.508,6.651,2.993,9.778,3.708,5.471,1.249,10.196,2.328,11.714,5.314.424.832.776,2.182.046,3.879-.918,2.137-1.764,3.909-2.54,5.375,2.584-.152,5.907.446,9.982,2.935,5.966,3.639,6.725,14.083,3.69,21.554-1.56,3.841-4.321,6.866-7.719,8.516l2.416,32.082c.488,9.659,6.664,17.924,15.737,21.11l9.611,3.375c.77.27,1.327.946,1.445,1.755.119.807-.221,1.613-.882,2.094-.296.215-20.486,14.551-48.047,14.553ZM1900.175,1197.496c35.399,20.226,68.246,4.993,79.067-1.249l-5.312-1.867c-10.765-3.778-18.092-13.583-18.666-24.978l-2.532-33.614c-.075-1,.534-1.922,1.483-2.244,2.875-.978,5.367-3.472,6.666-6.668,2.302-5.671,1.975-13.783-1.909-16.151-6.004-3.665-9.235-2.128-11.375-1.118-.141.069-.279.133-.414.195-1.221,1.023-2.151,1.06-2.868.884-1.046-.262-1.842-1.36-1.75-2.433.098-1.152.993-2.045,2.223-2.261.807-.905,2.505-3.27,4.993-9.06-.453-1.294-5.818-2.519-8.7-3.178-6.543-1.493-12.723-2.903-13.174-7.567-.808-8.361-4.302-13.566-9.345-13.925-5.991-.423-14.04,6.265-17.252,19.49-1.771,7.291-7.463,17.28-12.69,22.268-.769.734-1.185,1.723-1.173,2.785.013,1.062.454,2.043,1.241,2.757l5.5,5.001c.497.453.76,1.105.713,1.774-1.247,18.368,4.078,30.333,14.608,32.829,2.36.558,4.985.639,7.804.245.606-.086,1.235.09,1.711.489.476.397.763.976.788,1.596l.226,5.454c.233,12.296-6.666,23.807-17.575,29.377l-2.29,1.169ZM1887.103,1112.43h.022-.022ZM1945.446,1110.334h-.005.005Z"/>
              </g>
              <path d="M1917.617,1163.783c-1.021,0-1.936-.717-2.15-1.755-.245-1.189.521-2.349,1.71-2.594,15.95-3.274,22.669-16.132,22.734-16.261.552-1.079,1.874-1.513,2.956-.959,1.081.551,1.51,1.873.96,2.954-.309.605-7.768,14.875-25.766,18.569-.149.03-.298.045-.444.045Z"/>
            </g>
            <g>
              <path d="M1884.078,1046.427c1.222-2.455,2.589-4.868,4.143-7.212,20.414-30.805,61.937-39.229,92.743-18.814,30.805,20.415,39.229,61.938,18.814,92.743-1.554,2.344-3.243,4.543-5.028,6.626l-110.672-73.342Z" style="fill: #fff;"/>
              <path d="M1976.941,1149.037c-.4,0-.806-.109-1.169-.339-26.259-16.559-17.774-36.412-14.548-42.104l.107-.191c.471-1.026,1.651-1.534,2.736-1.146,1.142.41,1.737,1.667,1.327,2.808-.032.09-.142.333-.347.695-3.513,6.198-9.272,22.131,13.068,36.221,1.027.648,1.335,2.004.686,3.029-.417.663-1.131,1.026-1.86,1.026Z" style="fill: #fff;"/>
              <polygon points="1994.41 1133.797 1998.717 1114.083 1887.748 1042.101 1856.948 1042.7 1994.41 1133.797" style="fill: #fff;"/>
              <path d="M1899.042,1051.624c-.532,0-1.065-.193-1.488-.582-.891-.822-.949-2.212-.127-3.105,32.666-35.463,76.269-16.593,85.065-12.238l7.382-8.145c.814-.899,2.202-.965,3.102-.152.899.815.968,2.206.152,3.105l-8.518,9.397c-.692.762-1.819.94-2.714.433-1.916-1.09-47.314-26.251-81.238,10.577-.432.47-1.023.708-1.617.708Z"/>
              <path d="M1994.411,1135.994c-.426,0-.849-.124-1.213-.365l-137.464-91.097c-.801-.532-1.165-1.523-.897-2.446.269-.923,1.106-1.564,2.067-1.583l28.258-.549c.395-.657.8-1.307,1.227-1.952,10.198-15.39,25.777-25.886,43.87-29.555,18.092-3.682,36.532-.077,51.918,10.12,15.389,10.198,25.885,25.779,29.555,43.87,3.67,18.093.075,36.53-10.123,51.92-.284.429-.586.843-.887,1.257l-.13.18-4.035,18.473c-.155.708-.649,1.294-1.321,1.566-.266.107-.547.161-.826.161ZM1864.033,1044.76l128.917,85.433,3.447-15.785c.063-.29.186-.564.357-.805l.416-.577c.264-.36.527-.721.776-1.096,9.55-14.411,12.916-31.676,9.48-48.62-3.437-16.941-13.266-31.531-27.675-41.078-14.41-9.554-31.681-12.925-48.618-9.479-16.942,3.437-31.532,13.266-41.08,27.675-.613.925-1.175,1.865-1.729,2.811-.387.659-1.089,1.071-1.853,1.086l-22.438.436Z"/>
            </g>
            <polygon points="2000.655 1119.879 1882.319 1043.651 1891.828 1027.066 2007.246 1106.697 2000.655 1119.879"/>
            <g>
              <path d="M1876.869,1048.778l9.844,6.312c4.164,2.67,9.695,1.559,12.505-2.512l10.305-14.929c3.948-5.719,2.815-13.516-2.598-17.875l-8.119-6.538-21.937,35.541Z"/>
              <g>
                <path d="M1890.312,1033.197c-5.376,9.736-11.395,16.712-13.443,15.581-2.048-1.131.65-9.941,6.026-19.677,5.376-9.736,11.395-16.712,13.443-15.581,2.048,1.131-.65,9.94-6.026,19.677Z" style="fill: #fff;"/>
                <path d="M1877.259,1051.072c-.506,0-.992-.116-1.452-.371-5.225-2.884,2.632-18.074,5.164-22.661,2.672-4.838,5.595-9.185,8.229-12.24,2.191-2.54,5.426-5.735,8.2-4.201,2.775,1.532,1.792,5.971.809,9.177-1.181,3.858-3.303,8.646-5.974,13.485-2.311,4.184-9.726,16.812-14.977,16.812ZM1894.753,1016.39c-2.017,1.744-5.796,6.28-9.935,13.774-4.137,7.492-5.961,13.107-6.364,15.744,2.018-1.747,5.796-6.28,9.934-13.772l1.923,1.062-1.923-1.062c4.139-7.494,5.963-13.109,6.365-15.746Z"/>
              </g>
            </g>
          </g>
        </g>
      </g>
    </g>
  </g>
</svg>